<svg width="0" height="0" class="hidden">
  <symbol version="1.1" id="copy" xmlns="http://www.w3.org/2000/svg" xmlns:xlink="http://www.w3.org/1999/xlink" x="0px" y="0px" xml:space="preserve" viewBox="0 0 200 200">
    <path id="_x30__2_" d="M148.7,139.7c-4.2,0-7.6-3.4-7.6-7.6c0-4.2,3.4-7.6,7.6-7.6c4,0,7.3-3.3,7.3-7.3V51.8
	c0-4-3.3-7.3-7.3-7.3H83.1c-4,0-7.3,3.3-7.3,7.3c0,4.2-3.4,7.6-7.6,7.6c-4.2,0-7.6-3.4-7.6-7.6c0,0,0,0,0,0
	c0-12.4,10.1-22.4,22.4-22.4h65.5c12.4,0,22.4,10.1,22.4,22.4v65.5C171.1,129.7,161,139.7,148.7,139.7L148.7,139.7z"></path>
    <path id="_x30__1_" d="M115.1,172.5H52.4c-13.1,0-23.7-10.6-23.7-23.6c0,0,0,0,0-0.1v-63c0-13.1,10.6-23.7,23.6-23.7
	c0,0,0,0,0.1,0h62.7c13.1,0,23.7,10.6,23.7,23.6c0,0,0,0,0,0.1v63C139.1,161.9,128.2,172.5,115.1,172.5z M52.4,77.2
	c-4.7,0-8.5,3.7-8.6,8.4c0,0,0,0.1,0,0.1v63c0,4.7,3.7,8.5,8.4,8.6c0,0,0.1,0,0.1,0h62.7c4.7,0,8.5-3.7,8.6-8.4c0,0,0-0.1,0-0.1v-63
	c0-4.7-3.7-8.5-8.4-8.6c0,0-0.1,0-0.1,0L52.4,77.2z"></path>
  </symbol>
  <symbol version="1.1" id="copy-fill" xmlns="http://www.w3.org/2000/svg" xmlns:xlink="http://www.w3.org/1999/xlink" x="0px" y="0px" xml:space="preserve" viewBox="0 0 200 200">
    <g id="_x30__1_">
      <path id="_x30__3_" d="M151,27.3H85.5c-12.4,0-22.4,10.1-22.4,22.4c0,0,0,0,0,0c0,4.2,3.4,7.6,7.6,7.6
		c0.4,0,0.8,0,1.2-0.1h49.7c12,0,21.8,9.8,21.8,21.8v52.4h0.3c0.6,3.6,3.7,6.4,7.5,6.4c12.4,0,22.4-10.1,22.4-22.4V49.8
		C173.4,37.4,163.4,27.4,151,27.3z"></path>
      <path id="_x30__2_" d="M115.5,62.1H52.7c0,0,0,0-0.1,0c-13.1,0-23.6,10.6-23.6,23.7v63c0,0,0,0,0,0.1
		c0,13.1,10.6,23.6,23.7,23.6h62.8c13.1,0,23.9-10.6,23.7-23.7v-63c0,0,0,0,0-0.1C139.2,72.7,128.6,62.1,115.5,62.1z"></path>
    </g>
  </symbol>
  <symbol version="1.1" id="close" xmlns="http://www.w3.org/2000/svg" xmlns:xlink="http://www.w3.org/1999/xlink" x="0px" y="0px" xml:space="preserve" viewBox="0 0 200.2 200">
    <path id="_x31__1_" d="M194.8,30.1L125,100l69.9,69.9l0,0c3.2,3.2,5.2,7.6,5.2,12.5c0,9.7-7.9,17.6-17.6,17.6
	c-4.9,0-9.3-2-12.5-5.2l0,0L100,125l-69.9,69.9l0,0c-3.2,3.2-7.6,5.2-12.5,5.2C7.9,200,0,192.1,0,182.4c0-4.9,2-9.3,5.2-12.5l0,0
	L75,100L5.2,30.1l0,0C2,26.9,0,22.5,0,17.6C0,7.9,7.9,0,17.6,0c4.9,0,9.3,2,12.5,5.2l0,0L100,75l69.9-69.9l0,0
	C173.1,2,177.5,0,182.4,0c9.7,0,17.6,7.9,17.6,17.6C200,22.5,198,26.9,194.8,30.1L194.8,30.1z"></path>
  </symbol>
  <symbol version="1.1" xmlns="http://www.w3.org/2000/svg" viewBox="0 0 1024 1024" id="close2">
    <path d="M453.44 512L161.472 220.032a41.408 41.408 0 0 1 58.56-58.56L512 453.44 803.968 161.472a41.408 41.408 0 0 1 58.56 58.56L570.56 512l291.968 291.968a41.408 41.408 0 0 1-58.56 58.56L512 570.56 220.032 862.528a41.408 41.408 0 0 1-58.56-58.56L453.44 512z"></path>
  </symbol>
  <symbol version="1.1" id="lock" xmlns="http://www.w3.org/2000/svg" xmlns:xlink="http://www.w3.org/1999/xlink" x="0px" y="0px" xml:space="preserve" viewBox="0 0 157 177">
    <path id="_x30__2_" d="M135.3,81.7v75H22.8v-75L135.3,81.7 M143,63H15C8.9,63,4,67.9,4,74v90.5c0,6.1,4.9,11,11,11h128
	c6.1,0,11-4.9,11-11V74C154,67.9,149.1,63,143,63z M125.9,63h-18.8V50.5c0-15.5-12.6-28.1-28.1-28.1S50.9,34.9,50.9,50.5V63H32.1
	V50.5c0-25.8,21-46.9,46.9-46.9s46.9,21,46.9,46.9V63z"></path>
    <path id="_x30__1_" d="M79,141.1c-5.2,0-9.4-4.2-9.4-9.4v-25c0-5.2,4.2-9.4,9.4-9.4s9.4,4.2,9.4,9.4v25
	C88.4,136.9,84.2,141.1,79,141.1z"></path>
  </symbol>
  <symbol t="1709273121317" version="1.1" xmlns="http://www.w3.org/2000/svg" pId="7217" xmlns:xlink="http://www.w3.org/1999/xlink" viewBox="0 0 1024 1024" id="Logout">
    <path d="M887.3 492.3L759.8 333c-6.2-7.7-15.4-12-24.9-12-3.5 0-7.1 0.6-10.5 1.8-12.8 4.5-21.3 16.6-21.3 30.1v95.6h-255c-35.2 0-63.7 28.5-63.7 63.7s28.5 63.7 63.7 63.7H703v95.6c0 13.5 8.6 25.6 21.3 30.1 3.5 1.2 7 1.8 10.5 1.8 9.5 0 18.7-4.3 24.9-12L887.2 532c9.4-11.5 9.4-28 0.1-39.7zM575.5 767.2H320.1c-34.9 0-63.3-28.5-63.3-63.7V321v-0.5c0-34.9 28.5-63.2 63.8-63.2h254.9c35.2 0 63.8-28.5 63.8-63.7s-28.5-63.7-63.8-63.7H256.8c-70.4 0-127.5 57.1-127.5 127.5v510c0 70.4 57.1 127.5 127.5 127.5h318.7c35.2 0 63.8-28.5 63.8-63.7 0-35.4-28.6-64-63.8-64z m0 0" pId="7218"></path>
  </symbol>
  
  <symbol version="1.1" id="menu" xmlns="http://www.w3.org/2000/svg" xmlns:xlink="http://www.w3.org/1999/xlink" x="0px" y="0px" xml:space="preserve" viewBox="0 0 200 200">
    <path id="_x31__1_" d="M179.4,86.7h-159c-7.3,0-13.3,6-13.3,13.3c0,7.3,6,13.3,13.3,13.3h159c7.3,0,13.3-6,13.3-13.3
	C192.7,92.7,186.7,86.7,179.4,86.7L179.4,86.7z M179.3,146.6h-159c-7.3,0-13.3,6-13.3,13.3c0,7.3,6,13.3,13.3,13.3h159
	c7.3,0,13.3-6,13.3-13.3C192.6,152.6,186.7,146.6,179.3,146.6z M179.5,27.4h-159c-7.3,0-13.3,6-13.3,13.3c0,7.3,6,13.3,13.3,13.3
	h159c7.3,0,13.3-6,13.3-13.3C192.9,33.4,186.9,27.4,179.5,27.4L179.5,27.4z"></path>
  </symbol>
  <symbol version="1.1" id="menu2" xmlns="http://www.w3.org/2000/svg" xmlns:xlink="http://www.w3.org/1999/xlink" x="0px" y="0px" xml:space="preserve" viewBox="0 0 200 200">
    <path id="_x30__1_" d="M179.3,27.4H60.5c-7.3,0-13.3,6-13.3,13.3S53.2,54,60.5,54h118.8c7.3,0,13.3-6,13.3-13.3
	S186.6,27.4,179.3,27.4z M179.3,86.8H60.5c-7.3,0-13.3,6-13.3,13.3s6,13.3,13.3,13.3h118.8c7.3,0,13.3-6,13.3-13.3
	C192.6,92.7,186.6,86.7,179.3,86.8L179.3,86.8z M179.3,146.6H60.5c-7.3,0-13.3,6-13.3,13.3c0,7.3,6,13.3,13.3,13.3h118.8
	c7.3,0,13.3-6,13.3-13.3C192.6,152.6,186.6,146.6,179.3,146.6z M20.4,27.6c-7.2,0-13.1,5.9-13.1,13.1v0.4c0,7.2,5.9,13.1,13.1,13.1
	c7.2,0,13.1-5.9,13.1-13.1v-0.4C33.6,33.5,27.7,27.6,20.4,27.6z M20.4,87c-7.2,0-13.1,5.9-13.1,13.1v0.4c0,7.2,5.9,13.1,13.1,13.1
	c7.2,0,13.1-5.9,13.1-13.1v-0.4C33.6,92.9,27.7,87,20.4,87z M20.4,146.9c-7.2,0-13.1,5.9-13.1,13.1v0.4c0,7.2,5.9,13.1,13.1,13.1
	c7.2,0,13.1-5.9,13.1-13.1V160C33.6,152.8,27.7,146.9,20.4,146.9z"></path>
  </symbol>
  <symbol t="1709273121317" version="1.1" xmlns="http://www.w3.org/2000/svg" pId="7217" xmlns:xlink="http://www.w3.org/1999/xlink" viewBox="0 0 1024 1024" id="quit">
    <path d="M887.3 492.3L759.8 333c-6.2-7.7-15.4-12-24.9-12-3.5 0-7.1 0.6-10.5 1.8-12.8 4.5-21.3 16.6-21.3 30.1v95.6h-255c-35.2 0-63.7 28.5-63.7 63.7s28.5 63.7 63.7 63.7H703v95.6c0 13.5 8.6 25.6 21.3 30.1 3.5 1.2 7 1.8 10.5 1.8 9.5 0 18.7-4.3 24.9-12L887.2 532c9.4-11.5 9.4-28 0.1-39.7zM575.5 767.2H320.1c-34.9 0-63.3-28.5-63.3-63.7V321v-0.5c0-34.9 28.5-63.2 63.8-63.2h254.9c35.2 0 63.8-28.5 63.8-63.7s-28.5-63.7-63.8-63.7H256.8c-70.4 0-127.5 57.1-127.5 127.5v510c0 70.4 57.1 127.5 127.5 127.5h318.7c35.2 0 63.8-28.5 63.8-63.7 0-35.4-28.6-64-63.8-64z m0 0" pId="7218"></path>
  </symbol>
  <symbol version="1.1" xmlns="http://www.w3.org/2000/svg" viewBox="0 0 1244 1024" id="quit2">
    <path d="M768 145.921938C768 65.254144 702.618587 0 621.966555 0L146.033445 0C65.365211 0 0 65.331493 0 145.921938L0 878.078062C0 958.745856 65.381413 1024 146.033445 1024L621.966555 1024C702.634789 1024 768 958.668507 768 878.078062L768 658.444946C768 638.159177 751.767223 621.714286 731.428571 621.714286 711.23072 621.714286 694.857143 637.749285 694.857143 658.44107L694.857143 878.050926C694.857143 918.260699 662.40245 950.857143 621.728366 950.857143L146.271634 950.857143C105.883721 950.857143 73.142857 918.008247 73.142857 878.050926L73.142857 145.949074C73.142857 105.739301 105.59755 73.142857 146.271634 73.142857L621.728366 73.142857C662.116279 73.142857 694.857143 105.991753 694.857143 145.949074L694.857143 365.55893C694.857143 385.842578 711.08992 402.285714 731.428571 402.285714 751.626423 402.285714 768 386.248997 768 365.555054L768 145.921938 768 145.921938 768 145.921938ZM876.995547 763.051191C862.018597 776.68992 860.911506 799.652206 874.73653 814.569582 888.465883 829.383717 911.809938 830.270098 926.774528 816.642633L1231.716315 538.948389C1247.332645 524.475538 1247.332645 499.774537 1231.716315 485.301687L926.774528 207.607442C911.764078 193.938249 888.561591 194.763081 874.73653 209.680494 861.007214 224.494592 861.832558 247.390757 876.967205 261.173065L1085.155767 450.759314C1100.117065 464.383781 1095.924736 475.428571 1075.375982 475.428571L658.583845 475.428571C638.221349 475.428571 621.714286 491.661349 621.714286 512 621.714286 532.197851 638.04427 548.571429 658.604507 548.571429L1075.62997 548.571429C1096.003877 548.571429 1100.552485 559.469787 1085.402039 573.266505L876.995547 763.051191 876.995547 763.051191 876.995547 763.051191Z"></path>
  </symbol>
  <symbol version="1.1" id="Expand" xmlns="http://www.w3.org/2000/svg" xmlns:xlink="http://www.w3.org/1999/xlink" x="0px" y="0px" xml:space="preserve" viewBox="0 0 60 90">
    <path d="M57.7,49.7L13.5,87.8c-3.2,3.1-8.4,3-11.5-0.3c-1.1-1.2-1.8-2.8-2.1-4.4V6.8c0.5-4.4,4.5-7.5,8.9-7c1.7,0.2,3.3,1,4.6,2.2
	l44.2,38.1c2.7,2.1,3.1,6,1,8.7C58.3,49.1,58,49.4,57.7,49.7z"></path>
  </symbol>
  <symbol version="1.1" id="Failed" xmlns="http://www.w3.org/2000/svg" xmlns:xlink="http://www.w3.org/1999/xlink" x="0px" y="0px" xml:space="preserve" viewBox="0 0 200 200">
    <path id="_x30__1_" d="M100,12.8c-48.2,0-87.2,39.1-87.2,87.2c0,48.2,39.1,87.2,87.2,87.2s87.2-39.1,87.2-87.2
	C187.2,51.8,148.2,12.8,100,12.8L100,12.8z M140,124.6c1.3,1.3,1.3,3.5,0,4.8L129.4,140c-1.3,1.3-3.5,1.3-4.8,0L100,115.4L75.4,140
	c-1.3,1.3-3.5,1.3-4.8,0L60,129.4c-1.3-1.3-1.3-3.5,0-4.8L84.6,100L60,75.4c-1.3-1.3-1.3-3.5,0-4.8L70.6,60c1.3-1.3,3.5-1.3,4.8,0
	L100,84.6L124.6,60c1.3-1.3,3.5-1.3,4.8,0L140,70.6c1.3,1.3,1.3,3.5,0,4.8L115.4,100L140,124.6L140,124.6z"></path>
  </symbol>
  <symbol version="1.1" id="Success-fill" xmlns="http://www.w3.org/2000/svg" xmlns:xlink="http://www.w3.org/1999/xlink" x="0px" y="0px" xml:space="preserve" viewBox="0 0 200 200">
    <path id="_x30__1_" d="M164.9,100c0,35.8-29.1,64.9-64.9,64.9S35.1,135.8,35.1,100S64.2,35.1,100,35.1
	S164.9,64.2,164.9,100z M136.6,83.9l-7.9-7.9c-0.5-0.5-1.4-0.5-1.9,0c0,0,0,0,0,0l-37.5,37.5L73.4,97.7c-0.5-0.5-1.4-0.5-1.9,0
	c0,0,0,0,0,0l-7.9,7.9c-0.5,0.5-0.5,1.4,0,1.9c0,0,0,0,0,0l25.6,25.6l47.3-47.3C137.1,85.3,137.1,84.5,136.6,83.9
	C136.6,84,136.6,84,136.6,83.9L136.6,83.9z"></path>
  </symbol>
  <symbol version="1.1" id="Success" xmlns="http://www.w3.org/2000/svg" xmlns:xlink="http://www.w3.org/1999/xlink" x="0px" y="0px" xml:space="preserve" viewBox="0 0 200 200">
    <path id="_x30__1_" d="M100,0C45,0,0,45,0,100s45,100,100,100s100-45,100-100S155,0,100,0z M100,187.5
	c-48.8,0-87.5-40-87.5-87.5c0-48.8,40-87.5,87.5-87.5c48.8,0,87.5,38.8,87.5,87.5S148.8,187.5,100,187.5z M135,66.3l-46.3,46.3
	L65,88.8c-3.8-3.8-10-3.8-15,0c-2.5,5-2.5,11.3,1.3,15l30,30c3.8,3.8,10,3.8,13.8,0l10-10L148.8,80c3.8-3.8,5-10,0-13.8
	C145,62.5,138.8,62.5,135,66.3z"></path>
  </symbol>
  <symbol version="1.1" id="coinMarketCap" xmlns="http://www.w3.org/2000/svg" xmlns:xlink="http://www.w3.org/1999/xlink" x="0px" y="0px" xml:space="preserve" viewBox="0 0 200 200">
    <path id="_x30__1_" d="M171.3,119.5c-3.5,2.2-7.6,2.5-10.7,0.7c-4-2.2-6.1-7.5-6.1-14.8V83.6c0-10.5-4.2-18-11.1-20.1
	c-11.8-3.4-20.7,11-24,16.4l-20.8,33.8V72.5c-0.2-9.5-3.3-15.2-9.2-16.9c-3.9-1.1-9.7-0.7-15.3,7.9l-46.6,74.9
	c-6.2-11.9-9.5-25.1-9.5-38.5c0-45.1,36.2-81.8,80.6-81.8c44.4,0,80.6,36.7,80.6,81.8c0,0.1,0,0.2,0,0.2c0,0.1,0,0.2,0,0.2
	C179.5,109.2,176.7,116.1,171.3,119.5L171.3,119.5z M197,100v-0.5C196.8,44.6,152.7,0,98.5,0C44.2,0,0,44.9,0,100s44.2,100,98.5,100
	c24.9,0,48.7-9.5,67-26.7c3.6-3.4,3.8-9.1,0.5-12.8c-3.3-3.6-8.9-3.9-12.5-0.6c0,0-0.1,0.1-0.1,0.1c-14.8,14-34.4,21.8-54.8,21.8
	c-23.8,0-45.2-10.5-60-27.2L80.6,87v31.1c0,15,5.8,19.8,10.7,21.2c4.9,1.4,12.3,0.4,20.1-12.2l23.1-37.5c0.7-1.1,1.3-2.1,2-3.2v19
	c0,14,5.6,25.2,15.4,30.7c8.8,5,19.9,4.5,28.9-1.2C191.7,128,197.6,115.3,197,100L197,100z"></path>
  </symbol>
  <symbol version="1.1" id="dex" xmlns="http://www.w3.org/2000/svg" xmlns:xlink="http://www.w3.org/1999/xlink" x="0px" y="0px" xml:space="preserve" viewBox="0 0 120.6 145.3">
    <g id="_1-2">
      <path id="_x30_" d="M95.9,78.1c-4.9-2.8-9.3-5.4-13.8-7.9c-1.4-0.8-2.2-1.6-2.1-3.3c0-1.6-0.2-3.3-0.4-4.9c1.6-0.2,3.2-0.4,4.7-0.7
		c11.3-2.2,16.6-12.4,11.8-22.8c-0.8-1.2-0.5-2.8,0.6-3.7c2.3-2.4,4.3-5.1,6.6-7.8c2.8,4.6,4.7,9.7,5.6,15c0.6,4,0.9,8,0.9,12
		c0.4,9.5,0.2,19,1,28.5c1,11.7,4.2,23.2,9.4,33.7c0.3,0.6,0.4,1.3,0.3,1.9l-15.6-12.5L93,124.7L80.5,113l-20,32.3l-20-32.3
		l-12.4,11.7l-11.9-19.3L0.3,118.2L0,118c0.6-1.4,1.3-2.7,1.9-4c6.8-14.8,9.4-30.4,9.4-46.6c0-6.8-0.1-13.6,0.2-20.3
		c0.3-7.2,2.7-13.8,6.3-20.1c2.6,3,5.1,5.8,7.4,8.8c0.4,0.6,0,2-0.3,2.8c-3.3,7.2-1.8,14.5,3.8,19c3.1,2.4,6.8,3.8,10.7,4.1
		c0.7,0,1.3,0.1,2,0.2c-0.1,2.1-0.1,4.1-0.4,6c-0.2,0.8-0.8,1.6-1.5,2c-4.5,2.7-9.1,5.3-13.6,7.9c-0.1,0.1-0.2,0.2-0.3,0.6
		c3,1.7,6,3.6,9.1,5.1c6,2.8,9.6,7.5,12.4,13.2c5.2,10.4,8.2,21.6,11.5,32.7c0.5,2,1.3,4,2.2,5.8c1.7-5.8,3.4-11.6,5.1-17.3
		c2.6-8.4,5.4-16.8,9.9-24.5c2.2-4,5.6-7.3,9.7-9.4C88.9,82.2,92.1,80.2,95.9,78.1z"></path>
      <path id="_x30__1_" d="M13.9,8.5c2.5,1.8,4.9,3.7,7.6,5.4c2,1.3,3.8,1.1,5.8-0.8c18.9-17.7,48.3-17.5,67,0.4
		c1.4,1.3,2.7,1.6,4.2,0.8c1.6-0.8,3.1-1.6,4.6-2.6c1.3-1,2.5-2.2,4.1-3.2c-0.3,0.8-0.6,1.5-0.9,2.3c-3.9,8-9.9,14.4-16.4,20.3
		c-5.8,5.3-12.3,9.8-19.2,13.5c-1,0.7-2.3,0.6-3.3-0.1c-4.6-2.7-9.2-2.6-13.8,0.1c-0.7,0.4-1.6,0.5-2.4,0.2
		C37,37.2,24.9,27.3,16.3,13.6c-0.8-1.4-1.5-2.8-2.1-4.3C14.1,9,14,8.8,13.9,8.5z"></path>
      <path id="_x30__2_" d="M79.7,78c-12,7-15.2,19.1-19.1,31.4C56.6,97.2,53.5,85,41.4,78c2-1.2,3.7-2.2,5.5-3.1c1.6-0.8,2.1-2,2.3-3.8
		c0.3-4.1,0.5-8.3,1.8-12.1c0.9-2.6,3.1-5,5.2-6.9c2.8-2.5,6.2-2.2,9.2,0.1c4.3,3.3,6,7.9,6.5,13.1c0.2,1.9,0.2,3.8,0.1,5.7
		c-0.2,1.6,0.7,3.2,2.1,3.9C76,75.7,77.7,76.8,79.7,78z"></path>
      <path id="_x30__3_" d="M73.5,52l15.4-9.7c2.3,4.3,0.9,8.4-3.7,10.3C81.4,54.3,77.1,54,73.5,52z"></path>
      <path id="_x30__4_" d="M47.6,51.9c-4.5,2.6-10.6,2.2-14-0.8c-2.6-2.3-3.1-5.1-1.4-8.9L47.6,51.9z"></path>
    </g>
  </symbol>
  <symbol version="1.1" id="telegram" xmlns="http://www.w3.org/2000/svg" xmlns:xlink="http://www.w3.org/1999/xlink" x="0px" y="0px" xml:space="preserve" viewBox="0 0 125.2 110.2">
    <polygon id="_1-2" points="120.7,3.2 6.3,47.7 4.7,52.8 35,63.6 45.6,97 49.8,100.8 67.3,84.5 96.9,106.4 102.8,105.4 
	" style="display:none"></polygon>
    <path id="_1-3" d="M114.4,1.9c-0.9,0.5-1.8,0.8-2.8,1c-1.2,0.1-2.2,0.5-3.1,1.3c-1,0.7-2.1,1.3-3.2,1.8
	c-1.6,0.7-3.3,1.2-5.1,1.5c-1.9,0.5-3.4,1.7-5.4,1.9c-1.2,0.1-2.4,0.5-3.5,1.2c-2.1,1.7-4.6,2.3-7.1,3.1c-2.4,0.8-4.7,1.7-6.9,2.8
	c-1,0.5-2,1.2-3.1,1.6c-4.2,1.6-8.7,2.5-12.6,5.1c-0.4,0.3-0.9,0.5-1.4,0.6c-2.4,0.6-4.7,1.4-7.1,2C49.9,26.7,47,28.5,44,30
	c-0.8,0.2-1.5,0.5-2.2,0.8c-1.6,1.2-3.4,2-5.4,2.4c-3.7,0.6-7.2,1.8-10.4,3.7c-2.2,1.1-4.4,2.1-6.8,2.9c-3,1-5.9,2.2-8.9,3.3
	c-2,0.7-3.5,2.5-5.9,2.3c-0.6,0.1-1.1,0.4-1.3,1c-0.4,1-0.8,1.9-1.3,2.8c-0.8,1.6-0.1,5.2,1.4,6.1C5,56.5,6.6,58,9,58.2
	s4.6,1.3,6.8,2.2c3.2,1.3,6.5,2.3,9.9,2.9c2.6,0.5,4.8,2,7.4,2.3c0.7,0.1,0.8,0.6,0.8,1.1c0.2,4.3,2.3,8.1,3.7,12
	c0.9,2.6,2.5,4.9,3.2,7.7c0.4,1.4,1,2.8,1.9,4c0.9,1.2,0.7,3.2,1.4,4.7c0.9,2.1,0.8,4.5,2.3,6.4c1,1.2,3.1,1.9,4.1,0.9
	s2.4-2,3.5-3.1c2.4-2.2,4.8-4.5,7.4-6.5c2.1-1.6,4.3-3.1,5.2-5.7c0.2-0.5,0.6-0.5,0.9,0c1.1,1.8,3.2,2.2,4.6,3.8
	c1,1.1,2.7,1.8,4.1,2.7c3.2,2,5.7,4.8,8.8,6.9c2.5,1.8,4.7,4.1,7.2,5.8c1.6,1.1,3.2,2.6,5.8,2.2c0.8,0.1,1.7,0,2.5-0.1
	c0.9,0,1.5-0.9,2.5-1c1.2-0.1,2.7-3.2,2.8-4.4c0.3-2.2,0.7-4.4,1.2-6.6s1.3-4.6,1.8-7c0.5-2.1,0.2-4.4,1-6.5c0.6-1.7-0.2-3.4,0.3-5
	c1.2-4.3,2.2-8.6,2.9-12.9c1-4.9,2.4-9.7,3-14.8c0.3-3.2,0.9-6.4,1.6-9.6c0.6-2.8,1.1-5.7,1.9-8.5c0.4-1.7,0.6-3.5,0.7-5.3
	c0.2-2,0.6-4.1,0.9-6.1c0.1-1.6,0.4-3.3,0.9-4.8c0.6-2.1,1-4.3,1.4-6.5c0.4-1.4,0.4-2.9,0-4.3C122.6,2.6,116.8,0.6,114.4,1.9z
	 M49,74.5c-0.3,3.1-0.3,6.3-0.5,9.4c-0.2,2-0.7,4-1.2,6.4c-1-2.3-1.9-4.6-2.5-7.1c-0.7-3.1-1.6-6.1-2.8-9c-0.5-1.3-1.2-2.6-1.7-3.9
	c-0.7-1.8-2-3.1-2.6-4.9c-0.2-0.7-0.1-0.7,0.4-1.1c1.8-1.7,4.4-2.2,6.3-3.6c2.5-1.9,5.7-2.4,8-4.7c1.9-2,4.7-2.7,7-4.1
	c2.6-1.6,5.5-3.1,7.6-5.1c3.1-3,7.4-4.2,10.2-7.5c2.8-0.4,4.4-3,7.3-4.4c-0.9,1.7-2.1,3.1-3.6,4.2c-1.9,1.7-3.2,3.9-5.2,5.5
	c-2.6,2.1-4.9,4.6-7.3,6.9s-5,4.3-7.2,6.8c-3.1,3.7-6.4,7.2-10,10.4C49.4,70,49.3,72.3,49,74.5z M62,85.5c-2.8,1.8-4.7,4.6-7.3,6.4
	c-0.8,0.6-0.8,1.9-2,2.1c-0.2,0-0.5,0.4-0.8-0.1c-0.1-0.2-0.2-0.5,0-0.6c1.3-1.1,0.8-2.8,1-4.2c0.4-2.6,0.3-5.3,0.9-7.9
	c0.2-1-0.5-2.1,0.5-3c0.4-0.4,0.7-0.6,0.9-0.2c0.7,1.3,3.1,0.8,3.1,2.8c1.8,0.1,2.3,2,3.7,2.6c0.4,0.1,0.7,0.4,0.8,0.9
	C62.8,84.8,62.5,85.3,62,85.5L62,85.5z M118.8,6.3c-0.4,1.6-0.6,3.2-0.6,4.8c-0.2,4.2-1.9,8-2.6,12.1c-0.4,3.2-1,6.3-1.8,9.4
	c-0.4,1.6,0,3.5-0.5,5.1c-0.8,2.8-0.9,5.8-1.7,8.6c-0.8,2.3-1.3,4.8-1.4,7.3c0,1.8-0.8,3.7-1.1,5.5c-0.6,3.9-1.1,7.9-1.9,11.8
	c-0.7,3.6-0.9,7.3-2.2,11c-0.8,2.3-0.6,5-1,7.5c-0.4,2.9-1,5.7-1.7,8.5c-0.4,1.1-0.7,2.3-0.6,3.4c0.2,1.5-1.5,3.1-3,3.1
	c-1,0-1.9-0.5-2.4-1.3c-1.5-2-3.8-3-5.7-4.4c-2.4-1.7-4.8-3.3-6.7-5.5c-0.9-0.8-1.9-1.5-3-1.9c-4.4-2.4-7.9-5.9-11.7-9.1
	c-2.9-2.4-5.9-4.5-8.9-6.8c-1.3-1-2.5-2.2-3.9-3.2c-0.6-0.4-0.2-0.5,0-0.7c1-1.4,2.1-2.6,3.4-3.8c2.2-2.3,4.2-4.7,6.4-6.9
	c2.8-2.8,5.4-6,8.7-8.4c0.9-0.8,1.7-1.7,2.4-2.7c2.6-3,5.5-5.8,8.1-8.8c1.2-1.4,2.5-3.1,4.6-3.9c1-0.3,1.3-1.7,2-2.4
	c2.8-2.7,4.7-6.1,7.6-8.6c1.2-1.2,2.4-2.3,3.7-3.3c1-0.7,1.5-1.8,0.4-2.8c-0.8-0.7-1.6-1.6-3.1-0.5c-1.8,1.3-4.1,1.8-6,3.2
	c-2.7,2-5.9,3.2-8.5,5.3c-1.6,1.2-3.1,2.5-4.7,3.7c-1.4,1-3.1,1.5-4.6,2.4c-2.8,1.9-5.6,3.8-8.6,5.6c-2.3,1.4-4.5,3.1-7.1,4
	c-0.7,0.3-1.4,0.7-2,1.2c-2.3,1.7-4.6,3.5-7,5.2c-1.7,1.3-3.7,2.4-5.5,3.7c-2.5,1.7-5.2,3.3-7.7,5c-1,0.8-2.1,1.5-3.2,2.2
	c-1.1,0.6-2.5,0.7-3.7,0.1c-2.2-0.8-4.4-1.7-6.5-2.8c-1.4-0.7-3-0.7-4.4-1.3c-2.8-1.1-5.8-1.8-8.7-2.7c-2-0.6-3.8-1.8-6.1-1.6
	c-0.7,0-1.3-0.6-1.3-1.3c0,0,0,0,0,0c0-0.5,0.4-1,1.3-1.4c2.2-0.9,4.7-1.3,6.8-2.5s4.2-1.9,6.2-3c1.6-0.8,3.4-1.2,5.2-1.4
	c0.2,0,0.5,0.1,0.7,0c2.4-2,5.6-2.4,8.4-3.6c0.9-0.4,1.8-0.9,2.6-1.4c2.3-1.5,5.4-1.2,7.5-2.8c1.9-1.5,4.3-1.6,6.3-2.4
	c1.7-0.7,3.5-1.4,5.3-2.1c2.2-0.8,4.2-2.3,6.5-2.9c3.5-0.9,6.6-2.8,10-3.9c1.5-0.5,2.9-1.2,4.2-2c1.4-0.8,3.2-0.9,4.8-1.6
	c3.5-1.6,7.3-2.7,10.9-3.9c2.3-0.8,4.4-2.4,6.7-3.2c1.6-0.7,3.2-1.3,4.8-1.7c0.7-0.1,1.4-0.4,1.9-0.9c1.2-0.8,2.7-0.5,3.9-1.2
	c2.6-1.7,5.8-1.9,8.4-3.4C118.3,5.5,119,5.7,118.8,6.3z"></path>
  </symbol>
<symbol version="1.1" id="telegram-fill" xmlns="http://www.w3.org/2000/svg" xmlns:xlink="http://www.w3.org/1999/xlink" x="0px" y="0px" xml:space="preserve" viewBox="0 0 176.6 147.7">
    <path id="_x31__1_" d="M175.1,14.2l-26.4,124.5c-2,8.8-7.2,11-14.6,6.8l-40.2-29.6l-19.4,18.7c-2.1,2.1-3.9,3.9-8.1,3.9
	l2.9-41l74.6-67.4c3.2-2.9-0.7-4.5-5-1.6l-92.2,58L6.9,74.2c-8.6-2.7-8.8-8.6,1.8-12.8L163.9,1.6C171.1-1.1,177.4,3.2,175.1,14.2z"></path>
  </symbol>
  <symbol version="1.1" id="twitter_2023" xmlnsInkscape="http://www.inkscape.org/namespaces/inkscape" xmlnsSodipodi="http://sodipodi.sourceforge.net/DTD/sodipodi-0.dtd" xmlnsSvg="http://www.w3.org/2000/svg" xmlns="http://www.w3.org/2000/svg" xmlns:xlink="http://www.w3.org/1999/xlink" x="0px" y="0px" xml:space="preserve" viewBox="0 0 697.7 698.3">
    <sodipodi:namedview bordercolor="#666666" borderopacity="1.0" id="namedview7" inkscapeCurrentLayer="layer1" inkscapeCx="-391.86709" inkscapeCy="780.61174" inkscapeDocumentUnits="mm" inkscapePagecheckerboard="0" inkscapePageopacity="0.0" inkscapePageshadow="2" inkscapeWindowHeight="1017" inkscapeWindowMaximized="1" inkscapeWindowWidth="1920" inkscapeWindowX="-8" inkscapeWindowY="-8" inkscapeZoom="0.32026164" pagecolor="#ffffff" showgrid="false"></sodipodi:namedview>
    <g id="layer1" transform="translate(10.164159,-14.177668)" inkscapeGroupmode="layer" inkscapeLabel="Layer 1">
      <path id="path834" d="M415.4,298.2L636,47.1c11.2-12.8,2.2-32.9-14.9-32.9h-8.8c-5.7,0-11.1,2.5-14.9,6.7L394.3,252
		c-8.5,9.6-23.7,8.8-31.1-1.7L203.5,22.6c-3.7-5.3-9.8-8.4-16.2-8.4H27.9c-16,0-25.4,18.1-16.2,31.2l241.6,344.3
		c5.2,7.5,4.7,17.6-1.3,24.4L18.7,679.6c-11.2,12.8-2.2,32.9,14.9,32.9h8.8c5.7,0,11.1-2.5,14.9-6.7l215.6-245.5
		c8.5-9.6,23.7-8.8,31.1,1.7l169.8,242.1c3.7,5.3,9.8,8.4,16.2,8.4h159.4c16,0,25.4-18,16.2-31.2L414,322.6
		C408.8,315.2,409.3,305.1,415.4,298.2z M320.8,405.8l-27.6-38.7L96,90.9c-9.4-13.1,0-31.3,16.1-31.3h45.8c6.4,0,12.4,3.1,16.1,8.3
		l171.4,240l27.5,38.7l208,291.4c9.4,13.1,0,31.3-16.1,31.3H519c-6.4,0-12.4-3.1-16.1-8.3L320.8,405.8z"></path>
    </g>
  </symbol>
  <symbol version="1.1" id="Youtube" xmlns="http://www.w3.org/2000/svg" xmlns:xlink="http://www.w3.org/1999/xlink" x="0px" y="0px" xml:space="preserve" viewBox="0 0 200 200">
    <path id="_x30__2_" d="M187.5,99.5c0-0.4,0-0.9,0-1.5c0-1.6-0.1-3.4-0.1-5.3c-0.2-5.4-0.4-10.9-0.9-16c-0.6-7.1-1.4-12.9-2.6-17.3
	c-2.5-9.4-9.8-16.7-19.2-19.2c-5.5-1.5-16.3-2.4-31.6-3c-7.2-0.3-15-0.4-22.8-0.5c-2.7,0-5.2-0.1-7.5-0.1h-5.7c-2.3,0-4.8,0-7.5,0.1
	c-7.8,0.1-15.5,0.3-22.8,0.5c-15.2,0.6-26.1,1.5-31.6,3C26,42.6,18.6,50,16.1,59.4c-1.2,4.4-2,10.3-2.6,17.3
	c-0.4,5.1-0.7,10.5-0.9,16c-0.1,1.9-0.1,3.7-0.1,5.3c0,0.6,0,1.1,0,1.5v1.1c0,0.4,0,0.9,0,1.5c0,1.6,0.1,3.4,0.1,5.3
	c0.2,5.4,0.4,10.9,0.9,16c0.6,7.1,1.4,12.9,2.6,17.3c2.5,9.4,9.8,16.7,19.2,19.2c5.5,1.5,16.3,2.4,31.6,3c7.2,0.3,15,0.4,22.8,0.5
	c2.7,0,5.2,0.1,7.5,0.1h5.7c2.3,0,4.8,0,7.5-0.1c7.8-0.1,15.5-0.3,22.8-0.5c15.2-0.6,26.1-1.5,31.6-3c9.4-2.5,16.7-9.9,19.2-19.2
	c1.2-4.4,2-10.3,2.6-17.3c0.4-5.1,0.7-10.5,0.9-16c0.1-1.9,0.1-3.7,0.1-5.3c0-0.6,0-1.1,0-1.5V100L187.5,99.5L187.5,99.5z
	 M173.4,100.5c0,0.4,0,0.9,0,1.4c0,1.5-0.1,3.2-0.1,5c-0.1,5.2-0.4,10.4-0.8,15.2c-0.5,6.3-1.3,11.4-2.2,14.9
	c-1.2,4.5-4.8,8.1-9.3,9.3c-4.1,1.1-14.4,2-28.5,2.5c-7.1,0.3-14.8,0.4-22.4,0.5c-2.7,0-5.2,0.1-7.4,0.1h-5.6c-2.2,0-4.7,0-7.4-0.1
	c-7.6-0.1-15.3-0.3-22.4-0.5c-14-0.5-24.4-1.4-28.5-2.5c-4.5-1.2-8-4.8-9.3-9.3c-0.9-3.5-1.7-8.6-2.2-14.9c-0.4-4.8-0.7-10-0.8-15.2
	c-0.1-1.8-0.1-3.5-0.1-5c0-0.5,0-1,0-1.4v-0.6v-0.4c0-0.4,0-0.9,0-1.4c0-1.5,0.1-3.2,0.1-5c0.1-5.2,0.4-10.4,0.8-15.2
	c0.5-6.3,1.3-11.4,2.2-14.9c1.2-4.5,4.8-8.1,9.3-9.3c4.1-1.1,14.4-2,28.5-2.5c7.1-0.3,14.8-0.4,22.4-0.5c2.7,0,5.2-0.1,7.4-0.1h5.6
	c2.2,0,4.7,0,7.4,0.1c7.6,0.1,15.3,0.3,22.4,0.5c14,0.5,24.4,1.4,28.5,2.5c4.5,1.2,8,4.8,9.3,9.3c0.9,3.5,1.7,8.6,2.2,14.9
	c0.4,4.8,0.7,10,0.8,15.2c0.1,1.8,0.1,3.5,0.1,5c0,0.5,0,1,0,1.4V100.5z"></path>
    <path id="_x30__1_" d="M82.6,126.2l45.3-26.4l-45.3-26C82.6,73.8,82.6,126.2,82.6,126.2z"></path>
  </symbol>
  <symbol version="1.1" id="Youtube-fill" xmlns="http://www.w3.org/2000/svg" xmlns:xlink="http://www.w3.org/1999/xlink" x="0px" y="0px" xml:space="preserve" viewBox="0 0 200 200">
    <path id="_x31__1_" d="M183.8,57.8c-2-7.5-7.9-13.5-15.5-15.5c-13.7-3.7-68.4-3.7-68.4-3.7s-54.7,0-68.4,3.7
	c-7.5,2-13.5,7.9-15.5,15.5c-3.7,13.7-3.7,42.2-3.7,42.2s0,28.5,3.7,42.2c2,7.5,7.9,13.5,15.5,15.5c13.7,3.7,68.4,3.7,68.4,3.7
	s54.7,0,68.4-3.7c7.5-2,13.5-7.9,15.5-15.5c3.7-13.7,3.7-42.2,3.7-42.2S187.5,71.5,183.8,57.8z M82.6,126.2V73.8l45.3,26L82.6,126.2
	z"></path>
  </symbol>
  <symbol version="1.1" id="facebook" xmlns="http://www.w3.org/2000/svg" xmlns:xlink="http://www.w3.org/1999/xlink" x="0px" y="0px" xml:space="preserve" viewBox="0 0 200 200">
    <path id="_x30_" d="M116.3,200H87.5c-7.8,0-14.1-6.3-14.1-14.1v-70.3H53.1c-7.8,0-14.1-6.3-14.1-14.1V80c0-7.8,6.3-14.4,14.1-14.4
	h20.3V48.4C73.4,20,92.8,0,120.3,0h26.6c4.4,0,7.8,3.4,7.8,7.8v40.6c0,4.4-3.4,7.8-7.8,7.8h-17.2v9.4h17.2c4.4,0.3,8.4,2.2,10.9,5.6
	s3.8,7.5,2.8,11.9l-4.1,20.9c-0.9,6.6-6.6,11.6-13.8,11.6h-13.4v70.3C129.7,193.8,123.4,200,116.3,200z M89.1,184.4h25v-76.6
	c0-4.4,3.4-7.8,7.8-7.8h19.7l3.8-18.8H122c-4.4,0-7.8-3.4-7.8-7.8v-25c0-4.4,3.4-7.8,7.8-7.8h17.2v-25h-18.8
	c-19.1,0-31.3,12.8-31.3,32.8v25c0,4.4-3.4,7.8-7.8,7.8H54.7V100h26.6c4.4,0,7.8,3.4,7.8,7.8C89.1,107.8,89.1,184.4,89.1,184.4z"></path>
  </symbol>
  <symbol t="1723267714226" version="1.1" xmlns="http://www.w3.org/2000/svg" pId="5427" xmlns:xlink="http://www.w3.org/1999/xlink" viewBox="0 0 1024 1024" id="facebook-fill">
    <path d="M880 112H144c-17.7 0-32 14.3-32 32v736c0 17.7 14.3 32 32 32h736c17.7 0 32-14.3 32-32V144c0-17.7-14.3-32-32-32z m-92.4 233.5h-63.9c-50.1 0-59.8 23.8-59.8 58.8v77.1h119.6l-15.6 120.7h-104V912H539.2V602.2H434.9V481.4h104.3v-89c0-103.3 63.1-159.6 155.3-159.6 44.2 0 82.1 3.3 93.2 4.8v107.9z" pId="5428"></path>
  </symbol>
  <symbol version="1.1" id="instagram" xmlns="http://www.w3.org/2000/svg" xmlns:xlink="http://www.w3.org/1999/xlink" x="0px" y="0px" xml:space="preserve" viewBox="0 0 200 200">
    <path id="_x30__2_" d="M100,59.9c-22.2,0-40.1,17.9-40.1,40.1s17.9,40.1,40.1,40.1s40.1-17.9,40.1-40.1S122.2,59.9,100,59.9z
	 M100,126c-14.3,0-26-11.7-26-26s11.7-26,26-26s26,11.7,26,26S114.3,126,100,126z M141.7,49c-5.2,0-9.4,4.2-9.4,9.4s4.2,9.4,9.4,9.4
	s9.4-4.2,9.4-9.4C151,53.1,146.9,49,141.7,49z"></path>
    <path id="_x30__1_" d="M178.1,100c0-10.8,0.1-21.5-0.5-32.2C177,55.3,174.1,44.2,165,35c-9.2-9.2-20.2-12-32.7-12.6
	c-10.8-0.6-21.5-0.5-32.2-0.5c-10.8,0-21.5-0.1-32.2,0.5C55.3,23,44.2,25.9,35.1,35c-9.2,9.2-12,20.2-12.6,32.7
	C21.9,78.6,22,89.2,22,100s-0.1,21.5,0.5,32.2c0.6,12.5,3.5,23.6,12.6,32.7c9.2,9.2,20.2,12,32.7,12.6c10.8,0.6,21.5,0.5,32.2,0.5
	c10.8,0,21.5,0.1,32.2-0.5c12.5-0.6,23.6-3.5,32.7-12.6c9.2-9.2,12-20.2,12.6-32.7C178.2,121.5,178.1,110.8,178.1,100L178.1,100z
	 M160.9,146.1c-1.4,3.6-3.1,6.2-5.9,8.9c-2.8,2.8-5.4,4.5-8.9,5.9c-10.3,4.1-34.7,3.2-46.1,3.2S64.2,165,53.9,161
	c-3.6-1.4-6.2-3.1-8.9-5.9c-2.8-2.8-4.5-5.4-5.9-8.9C35,135.9,36,111.5,36,100.1s-1-35.9,3.1-46.2c1.4-3.6,3.1-6.2,5.9-8.9
	c2.8-2.7,5.4-4.5,8.9-5.9C64.2,35,88.6,36,100,36s35.8-0.9,46.1,3.1c3.6,1.4,6.2,3.1,8.9,5.9c2.8,2.8,4.5,5.4,5.9,8.9
	C165,64.2,164,88.6,164,100S165,135.8,160.9,146.1z"></path>
  </symbol>
  <symbol t="1723267802729" version="1.1" xmlns="http://www.w3.org/2000/svg" pId="6554" xmlns:xlink="http://www.w3.org/1999/xlink" viewBox="0 0 1024 1024" id="instagram-fill">
    <path d="M512 359.657143c-83.885714 0-152.342857 68.457143-152.342857 152.342857S428.114286 664.342857 512 664.342857 664.342857 595.885714 664.342857 512 595.885714 359.657143 512 359.657143zM968.914286 512c0-63.085714 0.571429-125.6-2.971429-188.571429-3.542857-73.142857-20.228571-138.057143-73.714286-191.542857-53.6-53.6-118.4-70.171429-191.542857-73.714285-63.085714-3.542857-125.6-2.971429-188.571428-2.971429-63.085714 0-125.6-0.571429-188.571429 2.971429-73.142857 3.542857-138.057143 20.228571-191.542857 73.714285C78.4 185.485714 61.828571 250.285714 58.285714 323.428571c-3.542857 63.085714-2.971429 125.6-2.971428 188.571429s-0.571429 125.6 2.971428 188.571429c3.542857 73.142857 20.228571 138.057143 73.714286 191.542857 53.6 53.6 118.4 70.171429 191.542857 73.714285 63.085714 3.542857 125.6 2.971429 188.571429 2.971429 63.085714 0 125.6 0.571429 188.571428-2.971429 73.142857-3.542857 138.057143-20.228571 191.542857-73.714285 53.6-53.6 70.171429-118.4 73.714286-191.542857 3.657143-62.971429 2.971429-125.485714 2.971429-188.571429zM512 746.4c-129.714286 0-234.4-104.685714-234.4-234.4S382.285714 277.6 512 277.6 746.4 382.285714 746.4 512 641.714286 746.4 512 746.4z m244-423.657143c-30.285714 0-54.742857-24.457143-54.742857-54.742857s24.457143-54.742857 54.742857-54.742857 54.742857 24.457143 54.742857 54.742857a54.674286 54.674286 0 0 1-54.742857 54.742857z" pId="6555"></path>
  </symbol>
  <symbol version="1.1" id="medium" xmlns="http://www.w3.org/2000/svg" xmlns:xlink="http://www.w3.org/1999/xlink" x="0px" y="0px" xml:space="preserve" viewBox="0 0 200 200">
    <path id="_x30__1_" d="M90.3,72.5l36-57.7c1.7-2.7,5.2-3.7,8.1-2.3l62.2,30.8c2.4,1.2,3.8,3.8,3.4,6.4
	c0,0.3,0,0.5,0.1,0.8v132.8c0,3.5-2.8,6.2-6.3,6.2c-1,0-1.9-0.2-2.8-0.7l-62.5-31.5c-1.4-0.7-2.5-1.9-3-3.3L75,129v54.3
	c0,3.5-2.8,6.2-6.3,6.2c-1,0-1.9-0.2-2.8-0.7L3.4,157.2c-2.1-1-3.4-3.2-3.4-5.5V17.3C0,13.8,2.8,11,6.3,11c1,0,1.9,0.2,2.8,0.7
	l62.5,31.7c1.8,0.9,3,2.6,3.4,4.6L90.3,72.5L90.3,72.5z M97.6,84.3l5.3,8.6l28.5,45.3l53.3-86.7l-51-25.2L97.6,84.3z M92.4,99.5
	L85,87.7c-0.2-0.2-0.3-0.5-0.4-0.8L75,71.7v43.4l39.3,19.5L92.4,99.5L92.4,99.5z M62.5,52.8l-50-25.3v120.4l50,25.3V52.8L62.5,52.8z
	 M187.5,72.6l-47.4,76.7l47.4,23.9V72.6z"></path>
  </symbol>
  <symbol t="1713957636426" version="1.1" xmlns="http://www.w3.org/2000/svg" pId="40397" xmlns:xlink="http://www.w3.org/1999/xlink" viewBox="0 0 1024 1024" id="medium-fill">
    <path d="M341.138286 240.566857v670.281143c0 17.700571-8.557714 34.304-28.013715 34.304a42.057143 42.057143 0 0 1-18.870857-4.571429L28.525714 807.424c-16.018286-8.009143-28.562286-28.562286-28.562285-45.714286V110.262857c0-14.299429 6.838857-27.428571 22.272-27.428571 9.142857 0 17.152 4.571429 25.161142 8.557714l291.986286 146.285714a7.68 7.68 0 0 1 1.718857 2.852572z m36.571428 57.709714l305.152 494.848-305.152-151.990857V298.276571zM1024 308.553143v602.294857c0 18.870857-10.861714 32-29.696 32-9.728 0-18.870857-2.852571-26.843429-7.424l-252.013714-125.696z m-1.718857-68.534857c0 2.304-295.424 481.718857-318.281143 518.290285l-222.866286-362.276571 185.161143-301.129143a34.486857 34.486857 0 0 1 29.696-16.018286c5.156571 0 10.276571 1.133714 14.848 3.437715L1019.977143 236.617143c1.133714 0.585143 2.304 1.718857 2.304 3.437714z" pId="40398"></path>
  </symbol>
  <symbol version="1.1" id="reddit" xmlns="http://www.w3.org/2000/svg" xmlns:xlink="http://www.w3.org/1999/xlink" x="0px" y="0px" xml:space="preserve" viewBox="0 0 200 200">
    <path id="_x30_" d="M50,125c0-6.9,5.6-12.5,12.5-12.5S75,118.1,75,125c0,6.9-5.6,12.5-12.5,12.5S50,131.9,50,125z M125,125
	c0-6.9,5.6-12.5,12.5-12.5S150,118.1,150,125c0,6.9-5.6,12.5-12.5,12.5S125,131.9,125,125z M125.6,151.7c3.2-2.5,7.9-2,10.4,1.2
	s2,7.9-1.2,10.4c-9,7.1-22.6,11.6-34.8,11.6s-25.8-4.6-34.8-11.6c-3.2-2.5-3.8-7.2-1.2-10.4c2.5-3.2,7.2-3.8,10.4-1.2
	c5.2,4.1,15.4,8.4,25.6,8.4C110.2,160.2,120.5,155.8,125.6,151.7L125.6,151.7z M200,100c0-13.8-11.2-25-25-25
	c-9.4,0-17.6,5.2-21.8,12.9c-12.8-7-28.5-11.6-45.6-12.6l14.9-33.5l28.6,8.2c2.6,7.3,9.5,12.5,17.7,12.5c10.4,0,18.8-8.4,18.8-18.8
	S179.1,25,168.7,25c-7.1,0-13.3,4-16.5,9.9l-31.8-9.2c-3.6-1-7.3,0.7-8.8,4.1L91.3,75.3C74.7,76.5,59.4,81,46.9,87.9
	C42.6,80.2,34.4,75,25,75C11.2,75,0,86.2,0,100c0,10.2,6.1,19,14.9,22.9c-1.6,4.7-2.4,9.6-2.4,14.6C12.5,172,51.7,200,100,200
	s87.5-28,87.5-62.5c0-5-0.8-9.9-2.4-14.6C193.9,119,200,110.2,200,100L200,100z M168.8,36.7c3.9,0,7,3.1,7,7s-3.1,7-7,7s-7-3.1-7-7
	S164.9,36.7,168.8,36.7z M12.5,100c0-6.9,5.6-12.5,12.5-12.5c5,0,9.3,2.9,11.3,7.2c-6.5,5-11.9,10.7-16,16.9
	C15.8,109.7,12.5,105.2,12.5,100L12.5,100z M100,185.2c-40.1,0-72.7-21.3-72.7-47.7S59.9,89.8,100,89.8s72.7,21.3,72.7,47.7
	S140.1,185.2,100,185.2z M179.7,111.6c-4-6.3-9.4-12-16-16.9c2-4.2,6.3-7.2,11.3-7.2c6.9,0,12.5,5.6,12.5,12.5
	C187.5,105.2,184.2,109.7,179.7,111.6L179.7,111.6z"></path>
  </symbol>
  <symbol t="1723267897435" version="1.1" xmlns="http://www.w3.org/2000/svg" pId="7731" xmlns:xlink="http://www.w3.org/1999/xlink" viewBox="0 0 1024 1024" id="reddit-fill">
    <path d="M810.817 294.393c27.348 0 51.483-22.523 51.483-51.483s-22.523-51.483-51.483-51.483c-27.348 0-51.483 22.523-51.483 51.483 0 27.348 22.523 51.483 51.483 51.483zM518.015 727.16c-91.7 0-144.794-38.61-144.794-38.61-4.827-3.219-9.653-1.609-11.263 3.219l-9.653 17.696c-1.609 4.827-1.609 11.263 3.219 14.478 0 0 45.045 46.657 162.49 46.657s159.27-49.872 159.27-49.872c3.219-3.219 3.219-9.653 1.609-12.87l-11.263-16.090c-3.219-3.219-8.043-4.827-12.87-1.609 0-1.609-45.045 37.003-136.749 37.003zM352.311 603.284c27.348 0 51.483-22.523 51.483-51.483s-22.523-51.483-51.483-51.483c-27.348 0-51.483 22.523-51.483 51.483 1.609 28.959 24.132 51.483 51.483 51.483zM657.982 603.284c27.348 0 51.483-22.523 51.483-51.483s-22.523-51.483-51.483-51.483-51.483 22.523-51.483 51.483c0 28.959 22.523 51.483 51.483 51.483zM709.463 234.87c-8.043-3.219-94.919-32.174-131.922-6.434-38.61 27.348-37.003 117.441-33.786 117.441 85.266 6.434 164.097 32.174 223.622 72.396 4.827 3.219 56.308-41.828 112.617-32.174 56.308 9.653 94.919 62.742 77.222 122.268-17.696 57.917-72.396 75.615-70.787 93.309v14.478c0 149.619-170.532 270.278-381.285 270.278s-381.285-120.659-381.285-270.278c0-8.043 0-14.478 1.609-22.523 0-1.609-38.61-22.523-53.090-57.917-14.478-33.786-8.043-74.004 6.434-98.137 24.132-37.003 53.090-51.483 93.309-51.483s83.658 24.132 85.266 24.132c64.353-38.61 148.009-62.742 238.1-64.353 3.219 0-6.434-109.398 54.7-149.619 62.742-40.22 165.705 0 167.315 0v3.219c16.090-35.394 51.483-59.525 91.7-59.525 56.308 0 101.356 46.657 101.356 102.962 0 56.308-45.045 102.962-101.356 102.962s-101.356-46.657-101.356-102.962c0-3.219 0-6.434 1.609-8.043z" pId="7732"></path>
  </symbol>
  <symbol version="1.1" id="discord" xmlns="http://www.w3.org/2000/svg" xmlns:xlink="http://www.w3.org/1999/xlink" x="0px" y="0px" xml:space="preserve" viewBox="0 0 200 200">
    <path id="_x30__1_" d="M79.1,30.7l-4.9,0.6c0,0-21.9,2.4-37.9,15.2h-0.2l-0.2,0.2C32.3,50,30.8,54,28.3,60
	c-2.9,7.1-5.4,14.4-7.4,21.9c-4.6,16.8-8.4,37.1-8.4,55.7v1.6l0.8,1.6c5.8,10.2,16.1,16.6,25.6,21.1s17.8,6.8,23.4,7l3.7,0.2l2-3.3
	l6.8-12.1c7.3,1.6,15.6,2.7,25.2,2.7s17.9-1.1,25.2-2.7l6.8,12.1l2,3.3l3.7-0.2c5.7-0.2,13.9-2.6,23.4-7
	c9.5-4.5,19.8-10.9,25.6-21.1l0.8-1.6v-1.6c0-18.6-3.8-38.9-8.4-55.7c-2-7.4-4.5-14.7-7.4-21.9c-2.5-5.9-4-10-7.6-13.3l-0.2-0.2
	h-0.2c-16-12.8-37.9-15.2-37.9-15.2l-4.9-0.6l-1.8,4.5c0,0-1.8,4.6-2.9,9.8c-5.4-0.7-10.8-1.1-16.2-1.2c-3.3,0-9.1,0.2-16.2,1.2
	c-1.1-5.2-2.9-9.8-2.9-9.8L79.1,30.7z M70.5,44.9c0.3,0.9,0.5,1.6,0.8,2.3c-8.1,2-16.7,5-24.6,10l6.6,10.5
	c16.2-10,39.5-11.4,46.7-11.4s30.5,1.5,46.7,11.5l6.6-10.5c-7.9-4.9-16.5-8-24.6-10c0.2-0.7,0.5-1.5,0.8-2.3
	c5.8,1.2,17,3.9,26.2,11.1c-0.1,0,2.3,3.6,4.5,8.8c2.2,5.3,4.6,12.4,6.8,20.3c4.2,15.3,7.5,33.8,7.8,50.2c-3.9,6-11.2,11.4-18.9,15
	c-4.8,2.3-10,3.9-15.2,4.9l-3.1-5.3c1.9-0.7,3.7-1.4,5.3-2.1c9.6-4.2,14.8-8.8,14.8-8.8l-8.2-9.4c0,0-3.5,3.2-11.7,6.8
	s-20.7,7.2-37.7,7.2s-29.5-3.6-37.7-7.2c-8.2-3.6-11.7-6.8-11.7-6.8l-8.2,9.4c0,0,5.2,4.6,14.8,8.8c1.6,0.7,3.4,1.5,5.3,2.1
	l-3.1,5.3c-5.3-1-10.4-2.6-15.2-4.9c-7.7-3.6-15-9-18.9-15c0.3-16.4,3.6-34.9,7.8-50.2c1.9-6.9,4.2-13.7,6.8-20.3
	c2.1-5.2,4.5-8.8,4.5-8.8C53.5,48.8,64.7,46.1,70.5,44.9z M78.1,87.5c-4.8,0-9.1,2.8-11.7,6.3s-3.9,7.8-3.9,12.5s1.3,9,3.9,12.5
	c2.6,3.5,6.9,6.3,11.7,6.3s9.1-2.8,11.7-6.3s3.9-7.8,3.9-12.5s-1.3-9-3.9-12.5S83,87.5,78.1,87.5z M121.9,87.5
	c-4.8,0-9.1,2.8-11.7,6.3s-3.9,7.8-3.9,12.5s1.3,9,3.9,12.5s6.9,6.3,11.7,6.3s9.1-2.8,11.7-6.3s3.9-7.8,3.9-12.5s-1.3-9-3.9-12.5
	S126.7,87.5,121.9,87.5z M78.1,100c0.3,0,0.8,0.1,1.6,1.2c0.8,1,1.6,2.9,1.6,5.1s-0.8,4-1.6,5.1c-0.8,1-1.2,1.2-1.6,1.2
	s-0.8-0.1-1.6-1.2c-1-1.5-1.6-3.3-1.6-5.1c0-2.2,0.8-4,1.6-5.1C77.3,100.1,77.8,100,78.1,100z M121.9,100c0.3,0,0.8,0.1,1.6,1.2
	c0.8,1,1.6,2.9,1.6,5.1s-0.8,4-1.6,5.1c-0.8,1-1.2,1.2-1.6,1.2s-0.8-0.1-1.6-1.2c-1-1.5-1.6-3.3-1.6-5.1c0-2.2,0.8-4,1.6-5.1
	S121.5,100,121.9,100z"></path>
  </symbol>
  <symbol t="1723267653816" version="1.1" xmlns="http://www.w3.org/2000/svg" pId="4266" xmlns:xlink="http://www.w3.org/1999/xlink" viewBox="0 0 1280 1024" id="discord-fill">
    <path d="M1049.062 139.672a3 3 0 0 0-1.528-1.4A970.13 970.13 0 0 0 808.162 64.06a3.632 3.632 0 0 0-3.846 1.82 674.922 674.922 0 0 0-29.8 61.2 895.696 895.696 0 0 0-268.852 0 619.082 619.082 0 0 0-30.27-61.2 3.78 3.78 0 0 0-3.848-1.82 967.378 967.378 0 0 0-239.376 74.214 3.424 3.424 0 0 0-1.576 1.352C78.136 367.302 36.372 589.38 56.86 808.708a4.032 4.032 0 0 0 1.53 2.75 975.332 975.332 0 0 0 293.65 148.378 3.8 3.8 0 0 0 4.126-1.352A696.4 696.4 0 0 0 416.24 860.8a3.72 3.72 0 0 0-2.038-5.176 642.346 642.346 0 0 1-91.736-43.706 3.77 3.77 0 0 1-0.37-6.252 502.094 502.094 0 0 0 18.218-14.274 3.638 3.638 0 0 1 3.8-0.512c192.458 87.834 400.82 87.834 591 0a3.624 3.624 0 0 1 3.848 0.466 469.066 469.066 0 0 0 18.264 14.32 3.768 3.768 0 0 1-0.324 6.252 602.814 602.814 0 0 1-91.78 43.66 3.75 3.75 0 0 0-2 5.222 782.11 782.11 0 0 0 60.028 97.63 3.728 3.728 0 0 0 4.126 1.4A972.096 972.096 0 0 0 1221.4 811.458a3.764 3.764 0 0 0 1.53-2.704c24.528-253.566-41.064-473.824-173.868-669.082zM444.982 675.16c-57.944 0-105.688-53.174-105.688-118.478s46.818-118.482 105.688-118.482c59.33 0 106.612 53.64 105.686 118.478 0 65.308-46.82 118.482-105.686 118.482z m390.76 0c-57.942 0-105.686-53.174-105.686-118.478s46.818-118.482 105.686-118.482c59.334 0 106.614 53.64 105.688 118.478 0 65.308-46.354 118.482-105.688 118.482z" pId="4267"></path>
  </symbol>
  <symbol version="1.1" id="discord-fill2" xmlns="http://www.w3.org/2000/svg" xmlns:xlink="http://www.w3.org/1999/xlink" x="0px" y="0px" xml:space="preserve" viewBox="0 0 200 200">
    <path id="_x31__1_" d="M168.5,0c11.7,0,21.2,9.5,21.7,20.6V200l-22.3-18.9l-12.3-11.2l-13.4-11.6l5.6,18.4h-117
	c-11.7,0-21.2-8.9-21.2-20.6V20.7C9.8,9.5,19.3,0,31,0L168.5,0L168.5,0z M117.5,47.4h-0.3l-1.7,1.7c17.3,5,25.6,12.8,25.6,12.8
	c-11.1-5.6-21.2-8.4-31.2-9.5c-7.3-1.1-14.5-0.5-20.6,0h-1.7c-3.9,0-12.3,1.7-23.4,6.1c-3.9,1.7-6.1,2.8-6.1,2.8s8.4-8.4,26.8-12.8
	l-1.1-1.1c0,0-13.9-0.5-29,10.6c0,0-15,26.2-15,58.5c0,0,8.3,14.5,31.2,15.1c0,0,3.3-4.4,6.7-8.3c-12.8-3.9-17.8-11.7-17.8-11.7
	s1.1,0.5,2.8,1.7h0.5c0.3,0,0.4,0.1,0.5,0.3v0.1c0.1,0.1,0.3,0.3,0.5,0.3c2.8,1.1,5.5,2.3,7.8,3.3c4.8,2.1,9.8,3.6,15,4.5
	c7.8,1.1,16.6,1.7,26.8,0c5-1.1,10-2.2,15-4.5c3.3-1.7,7.3-3.3,11.6-6.1c0,0-5,7.8-18.4,11.7c2.8,3.9,6.6,8.3,6.6,8.3
	c22.9-0.5,31.8-15,32.3-14.4c0-32.3-15.1-58.5-15.1-58.5c-13.6-10.1-26.4-10.5-28.6-10.5L117.5,47.4L117.5,47.4z M118.9,84.1
	c5.9,0,10.6,5,10.6,11.1c0,6.2-4.8,11.2-10.6,11.2s-10.6-5-10.6-11.1C108.4,89.1,113.1,84.2,118.9,84.1L118.9,84.1z M81.1,84.1
	c5.8,0,10.5,5,10.5,11.1c0,6.2-4.8,11.2-10.6,11.2c-5.8,0-10.6-5-10.6-11.1C70.5,89.1,75.2,84.2,81.1,84.1L81.1,84.1z"></path>
  </symbol>
  <symbol version="1.1" id="Audit" xmlns="http://www.w3.org/2000/svg" xmlns:xlink="http://www.w3.org/1999/xlink" x="0px" y="0px" xml:space="preserve" viewBox="0 0 200 200">
    <path id="_x30__4_" d="M68.8,137c3.8,0,7-3.1,7-7c0-3.8-3.1-7-7-7H50.3c-3.8,0-7,3.1-7,7c0,3.8,3.1,7,7,7H68.8z
	 M82.7,93.3H50.3c-3.8,0.3-6.7,3.6-6.4,7.5c0.3,3.4,3,6.1,6.4,6.4h32.4c3.8,0.3,7.2-2.6,7.5-6.4c0.3-3.8-2.6-7.2-6.4-7.5
	C83.4,93.3,83.1,93.3,82.7,93.3z M50.3,63c-3.8,0-7,3.1-7,7c0,3.8,3.1,7,7,7h64.8c3.8,0,7-3.1,7-7c0-3.8-3.1-7-7-7H50.3z"></path>
    <path id="_x30__3_" d="M74.5,169.5h-44V30.5h111.1v30.1c-0.3,3.8,2.6,7.2,6.4,7.5s7.2-2.6,7.5-6.4c0-0.4,0-0.7,0-1.1
	v-37c0-3.8-3.1-6.9-6.9-7c0,0,0,0,0,0h-125c-3.8,0-7,3.1-7,7c0,0,0,0,0,0v152.8c0,3.8,3.1,7,7,7h50.9c3.8-0.3,6.7-3.6,6.4-7.5
	C80.7,172.4,78,169.7,74.5,169.5L74.5,169.5z"></path>
    <path id="_x30__2_" d="M176.8,90.7L143.7,81h-0.6c-0.9-0.1-1.7-0.1-2.6,0l-33.3,9.7c-3.9,0.8-6.6,4.2-6.7,8.1v33.3
	c0,18.2,9.9,35.1,25.8,43.9l11.6,6.4c1.3,0.7,2.7,1.1,4.2,1c1.5,0,2.9-0.3,4.2-1l11.6-6.4c15.9-9,25.6-25.9,25.4-44.1V98.6
	C183.2,94.8,180.5,91.5,176.8,90.7z M172,132c0,14.1-7.7,27.1-20,33.9l-10,5.5l-10-5.5C119.7,159,112,146,112,132v-30.8l29.9-8.7
	l30,8.7L172,132z"></path>
    <path id="_x30__1_" d="M129.4,127.6c-2.1-2.3-5.6-2.5-7.9-0.4c-2.3,2.1-2.5,5.6-0.4,7.9l0.3,0.4l10.2,10.1
	c1,1,2.4,1.6,3.9,1.6c1.6,0.1,3.1-0.5,4.2-1.6l22.8-23c2.2-2.2,2.2-5.7,0.1-7.9c-2.2-2.2-5.7-2.2-7.9-0.1c0,0,0,0-0.1,0.1
	l-19.1,19.1L129.4,127.6z"></path>
  </symbol>
  <symbol version="1.1" id="Audit2" xmlns="http://www.w3.org/2000/svg" xmlns:xlink="http://www.w3.org/1999/xlink" x="0px" y="0px" xml:space="preserve" viewBox="0 0 200 200">
    <path id="_x30__4_" d="M103.7,71.6c-14,6.7-25,18.1-31.2,32.3c-1.8,4.1,0.1,8.9,4.2,10.7c1,0.5,2.1,0.7,3.2,0.7
	c3.1,0,6.1-1.8,7.4-4.9c4.6-10.6,12.9-19.2,23.3-24.1c4-1.9,5.7-6.8,3.8-10.8C112.5,71.4,107.7,69.6,103.7,71.6z"></path>
    <path id="_x30__3_" d="M62.3,183.5h-30c-8.2,0-14.8-6.7-14.8-14.8V33.3c0-8.2,6.7-14.8,14.8-14.8h122.8
	c8.2,0,14.8,6.7,14.8,14.8v12.1c0,3.5,5.3,6.6,8.8,6.6c3.5,0,8.8-3.1,8.8-6.6V27.3c0-15.1-12.3-27.3-27.3-27.3H27.3
	C12.3,0,0,12.3,0,27.3v145.3C0,187.7,12.3,200,27.3,200h35c3.5,0,5.9-5,5.9-8.5C68.2,188,65.8,183.5,62.3,183.5L62.3,183.5z"></path>
    <path id="_x30__2_" d="M157.2,157.1c3.8-3.8,10.1-3.8,13.9,0l0.9,0.9c3.8-5,7-10.5,9.5-16.3c3.9-9.2,5.9-19.1,5.9-29.2
	s-2-19.9-5.9-29.2c-3.8-8.9-9.2-17-16.1-23.8c-6.8-6.8-14.9-12.3-23.8-16.1c-9.2-3.9-19.1-5.9-29.2-5.9s-19.9,2-29.2,5.9
	c-8.9,3.8-17,9.2-23.8,16.1c-6.8,6.8-12.3,14.9-16.1,23.8c-3.9,9.2-5.9,19.1-5.9,29.2s2,19.9,5.9,29.2c3.8,8.9,9.2,17,16.1,23.8
	c6.9,6.9,14.9,12.3,23.8,16.1c9.2,3.9,19.1,5.9,29.2,5.9s19.9-2,29.2-5.9c5.9-2.5,11.4-5.7,16.5-9.6l-0.9-0.9
	C153.4,167.2,153.4,160.9,157.2,157.1L157.2,157.1z M112.5,169c-32.1,0-58-26.9-56.5-59.3c1.4-29,24.9-52.4,53.8-53.8
	c32.4-1.5,59.3,24.4,59.3,56.5C169,143.7,143.7,169,112.5,169z"></path>
    <path id="_x30__1_" d="M197.3,183.2L172,158l-0.9-0.9c-3.8-3.8-10.1-3.8-13.9,0c-3.8,3.8-3.8,10.1,0,13.9l0.9,0.9
	l25.2,25.2c3.8,3.8,10.1,3.8,13.9,0C201.1,193.3,201.1,187.1,197.3,183.2L197.3,183.2z"></path>
  </symbol>
  <symbol xmlns="http://www.w3.org/2000/svg" xml:space="preserve" version="1.1" shape-rendering="geometricPrecision" text-rendering="geometricPrecision" image-rendering="optimizeQuality" fill-rule="evenodd" clip-rule="evenodd" xmlns:xlink="http://www.w3.org/1999/xlink" xmlnsXodm="http://www.corel.com/coreldraw/odm/2003" viewBox="0 0 784.37 1277.39" id="ethereum-eth">
    <g id="Layer_x0020_1">
      <metadata id="CorelCorpID_0Corel-Layer"></metadata>
      <g id="_1421394342400">
        <g>
          <polygon fill="#343434" fill-rule="nonzero" points="392.07,0 383.5,29.11 383.5,873.74 392.07,882.29 784.13,650.54 "></polygon>
          <polygon fill="#8C8C8C" fill-rule="nonzero" points="392.07,0 -0,650.54 392.07,882.29 392.07,472.33 "></polygon>
          <polygon fill="#3C3C3B" fill-rule="nonzero" points="392.07,956.52 387.24,962.41 387.24,1263.28 392.07,1277.38 784.37,724.89 "></polygon>
          <polygon fill="#8C8C8C" fill-rule="nonzero" points="392.07,1277.38 392.07,956.52 -0,724.89 "></polygon>
          <polygon fill="#141414" fill-rule="nonzero" points="392.07,882.29 784.13,650.54 392.07,472.33 "></polygon>
          <polygon fill="#393939" fill-rule="nonzero" points="0,650.54 392.07,882.29 392.07,472.33 "></polygon>
        </g>
      </g>
    </g>
  </symbol>
  <symbol xmlns="http://www.w3.org/2000/svg" viewBox="0 0 295 295" id="coingecko">
    <g id="coingecko" transform="translate(9.499 10.501)">
      <path id="Path_34" d="M310,183A138,138,0,1,1,171.4,45.61,138,138,0,0,1,310,183Z" transform="translate(-34 -46.61)" fill="none" stroke="#000" stroke-width="19"></path>
      <path id="Path_36" d="M174.35,64.27a70.18,70.18,0,0,1,24.53,0,74.66,74.66,0,0,1,23.43,7.85c7.28,4,13.57,9.43,19.83,14.52s12.49,10.3,18.42,16a93.381,93.381,0,0,1,15.71,19,108.069,108.069,0,0,1,11,22.17c5.33,15.66,7.18,32.53,4.52,48.62H291c-2.67-15.95-6.29-31.15-12-45.61a178.006,178.006,0,0,0-9.44-21.25,208.8,208.8,0,0,0-12.42-19.93,72.3,72.3,0,0,0-16.64-16.8c-6.48-4.62-13.93-7.61-21.14-10.45S205,72.61,197.48,70.45s-15.16-3.78-23.14-5.35Z" transform="translate(-34 -45.61)" fill="none"></path>
      <path id="Path_37" d="M236.74,138c-9.26-2.68-18.86-6.48-28.58-10.32-.56-2.44-2.72-5.48-7.09-9.19-6.35-5.51-18.28-5.37-28.59-2.93-11.38-2.68-22.62-3.63-33.41-1-88.25,24.31-38.21,83.62-70.61,143.24,4.61,9.78,54.3,66.84,126.2,51.53,0,0-24.59-59.09,30.9-87.45C270.57,198.79,303.09,156.07,236.74,138Z" transform="translate(-34 -45.61)"></path>
      <path id="Path_38" d="M247.64,176.81a5.35,5.35,0,1,1-5.38-5.32,5.35,5.35,0,0,1,5.38,5.32Z" transform="translate(-34 -45.61)" fill="#9faab5"></path>
      <path id="Path_39" d="M172.48,115.52c6.43.46,29.68,8,35.68,12.12-5-14.5-21.83-16.43-35.68-12.12Z" transform="translate(-34 -45.61)"></path>
      <path id="Path_40" d="M178.6,152.19a24.68,24.68,0,1,1-24.677-24.67A24.68,24.68,0,0,1,178.6,152.19Z" transform="translate(-34 -45.61)" fill="#9faab5"></path>
      <path id="Path_41" d="M171.28,152.41a17.36,17.36,0,1,1-17.36-17.36A17.36,17.36,0,0,1,171.28,152.41Z" transform="translate(-34 -45.61)"></path>
      <path id="Path_42" d="M267.63,187.69c-20,14.09-42.74,24.78-75,24.78-15.1,0-18.16-16-28.14-8.18-5.15,4.06-23.31,13.14-37.72,12.45S89,207.6,82.49,176.84c-2.58,30.76-3.9,53.42-15.45,79.39,23,36.83,77.84,65.24,127.62,53-5.35-37.35,27.29-73.93,45.68-92.65,7-7.09,20.3-18.66,27.29-28.91Z" transform="translate(-34 -45.61)"></path>
      <path id="Path_43" d="M266.85,188.61c-6.21,5.66-13.6,9.85-21.12,13.55a134.24,134.24,0,0,1-23.7,8.63c-8.16,2.11-16.67,3.7-25.29,2.92S179.31,210,173.6,203.54l.27-.31c7,4.54,15.08,6.14,23.12,6.37a108.569,108.569,0,0,0,24.3-2,132.339,132.339,0,0,0,23.61-7.3c7.63-3.15,15.18-6.8,21.68-12Z" transform="translate(-34 -45.61)" fill="#9faab5"></path>
    </g>
  </symbol>
  <symbol version="1.1" xmlns="http://www.w3.org/2000/svg" viewBox="0 0 1024 1024" id="compliance">
    <path d="M704 448c-141.38 0-256 114.62-256 256s114.62 256 256 256 256-114.62 256-256-114.62-256-256-256z m160 197.55l-0.28 0.28-57.81 57.91-135.8 136L512 681.37l45.18-45.25 112.94 113.14 129.71-129.95 0.17-0.17 50.82-50.91 12.9 12.92 0.28 0.28 32 32.06z"></path>
    <path d="M768 128h-64v64h63.89l0.11 0.11v264a254.42 254.42 0 0 1 64 26.19V192a64.19 64.19 0 0 0-64-64zM256.11 896l-0.11-0.11V192.11l0.11-0.11H320v-64h-64a64.19 64.19 0 0 0-64 64v704a64.19 64.19 0 0 0 64 64h448a255 255 0 0 1-169.31-64z"></path>
    <path d="M602.53 128a96 96 0 0 0-181.06 0H352v128h320V128zM512 192a32 32 0 1 1 32-32 32 32 0 0 1-32 32z"></path>
  </symbol>
</svg>