<svg class="svg-icon" style="width: 1em; height: 1em;vertical-align: middle;fill: currentColor;overflow: hidden;" viewBox="0 0 1024 1024" version="1.1" xmlns="http://www.w3.org/2000/svg"><path d="M356.266667 128C406.613333 120.746667 459.946667 175.786667 475.306667 251.733333 490.666667 327.253333 462.933333 394.666667 412.586667 402.346667 362.666667 410.026667 308.906667 354.986667 293.12 279.04 277.333333 203.52 305.92 136.106667 356.266667 128M661.333333 128C712.106667 136.106667 740.266667 203.52 725.333333 279.04 709.12 354.986667 655.786667 410.026667 605.44 402.346667 554.666667 394.666667 526.933333 327.253333 542.72 251.733333 558.08 175.786667 611.413333 120.746667 661.333333 128M128 324.266667C176.64 303.36 242.773333 341.333333 277.333333 407.466667 309.76 474.88 298.666667 545.706667 250.453333 566.613333 202.24 587.52 136.533333 549.973333 102.826667 482.986667 69.12 416 81.066667 344.746667 128 324.266667M896 324.266667C942.933333 344.746667 954.88 416 921.173333 482.986667 887.466667 549.973333 821.76 587.52 773.546667 566.613333 725.333333 545.706667 714.24 474.88 746.666667 407.466667 781.226667 341.333333 847.36 303.36 896 324.266667M824.746667 784.213333C826.453333 824.32 795.733333 868.693333 759.04 885.333333 682.666667 920.32 592.213333 847.786667 507.306667 847.786667 422.4 847.786667 331.093333 923.306667 256 885.333333 213.333333 864.426667 183.893333 808.96 189.44 762.88 197.12 699.306667 273.493333 665.173333 318.72 618.666667 378.88 558.506667 421.546667 445.44 507.306667 445.44 592.64 445.44 637.866667 556.8 695.466667 618.666667 742.826667 670.72 821.76 714.666667 824.746667 784.213333Z"  /></svg>